<?xml version="1.0" encoding="utf-8"?>
<!-- Generator: Adobe Illustrator 24.0.3, SVG Export Plug-In . SVG Version: 6.00 Build 0)  -->
<svg version="1.1" id="Layer_1" xmlns="http://www.w3.org/2000/svg" xmlns:xlink="http://www.w3.org/1999/xlink" x="0px" y="0px"
	 viewBox="0 0 769.4 295.1" style="enable-background:new 0 0 769.4 295.1;" xml:space="preserve">
<style type="text/css">
	.st0{fill:#3B6E8F;}
	.st1{fill:#C1D82F;}
</style>
<path class="st0" d="M331,44.6c-5.8,0-10.7-1.8-14.8-5.3s-6.2-8.6-6.2-15.1c0-5.9,2.1-10.7,6.3-14.5C320.5,5.9,325.4,4,331,4
	c5.4,0,10.1,1.7,14.3,5.2c4.2,3.4,6.2,8.5,6.2,15.1c0,6.4-2,11.4-6.1,15C341.4,42.8,336.6,44.6,331,44.6z"/>
<path class="st0" d="M253.6,68.9c2.1-2.5,4.9-4,8.6-4.6H156.8c4.6,0.7,8,2.5,10,5.6c2.6,3.9,5.4,10.6,8.6,19.9l33.6,94.3l36.2-98.4
	C248,77.8,250.8,72.2,253.6,68.9z M315.7,226.2c-3.8-4.4-5.7-10.6-5.7-18.7V88.7c0-8.2,1.9-14.4,5.7-18.6c3-3.3,6.7-5.2,11.1-5.9
	h-57.2c3.8,0.6,7,2.3,9.9,5c3.7,3.6,5.5,7.7,5.5,12.3c0,1.8-0.3,4-1,6.4s-1.4,4.7-2.3,6.8s-1.9,4.6-3,7.3L239,201
	c-1.1,2.8-2.6,6.4-4.3,10.8c-1.8,4.4-3.8,8.1-5.9,11.2c-2.2,3.1-4.9,5.5-8.1,7.2c-0.7,0.4-1.5,0.7-2.3,1h104.2
	C319.9,230.1,317.7,228.5,315.7,226.2z"/>
<path class="st1" d="M42.5,25.9v63.4c7.8-8.1,15.8-14.3,23.9-18.6s18.2-6.5,30.1-6.5c13.8,0,25.9,3.3,36.3,9.8
	c10.4,6.5,18.4,16,24.2,28.4s8.6,27.2,8.6,44.2c0,12.6-1.6,24.1-4.8,34.6c-3.2,10.5-7.8,19.6-13.9,27.3
	c-6.1,7.7-13.5,13.7-22.1,17.9c-8.7,4.2-18.2,6.3-28.7,6.3c-6.4,0-12.4-0.8-18-2.3c-5.6-1.5-10.4-3.5-14.4-6c-4-2.5-7.3-5-10.1-7.7
	c-2.8-2.6-6.5-6.6-11-11.9v4.1c0,7.8-1.9,13.7-5.6,17.7c-3.8,4-8.5,6-14.3,6c-5.9,0-10.6-2-14.1-6c-3.5-4-5.3-9.9-5.3-17.7V27.7
	C3.3,19.3,5,13,8.4,8.6c3.4-4.3,8.1-6.5,14.2-6.5c6.4,0,11.3,2,14.8,6.2C40.8,12.5,42.5,18.3,42.5,25.9z M44.5,149.3
	c0,16.5,3.8,29.2,11.3,38.1s17.5,13.3,29.7,13.3c10.4,0,19.4-4.5,27-13.6c7.6-9.1,11.3-22.1,11.3-39c0-10.9-1.6-20.4-4.7-28.3
	s-7.6-14-13.4-18.3C100,97.1,93.3,95,85.6,95c-7.9,0-15,2.2-21.1,6.5c-6.2,4.3-11,10.6-14.6,18.7C46.3,128.3,44.5,138,44.5,149.3z"
	/>
<path class="st1" d="M244.8,292.2h-8.5c-1.2,0-2.1-0.3-2.6-0.8s-0.8-1.4-0.8-2.6v-21c0-1.2,0.3-2.1,0.8-2.7s1.4-0.8,2.6-0.8h9.1
	c1.3,0,2.5,0.1,3.5,0.2s1.9,0.5,2.6,1c0.7,0.4,1.2,0.9,1.8,1.5c0.5,0.6,0.9,1.3,1.2,2c0.3,0.7,0.4,1.5,0.4,2.3
	c0,2.8-1.4,4.8-4.2,6.1c3.7,1.2,5.5,3.4,5.5,6.8c0,1.6-0.4,3-1.2,4.2s-1.9,2.2-3.2,2.8c-0.9,0.4-1.8,0.6-2.9,0.8
	C247.6,292.1,246.3,292.2,244.8,292.2z M238.5,268.5v7.2h5.2c1.4,0,2.5-0.1,3.3-0.4s1.4-0.8,1.8-1.5c0.3-0.5,0.5-1.1,0.5-1.8
	c0-1.4-0.5-2.4-1.5-2.8s-2.5-0.7-4.6-0.7H238.5z M244.4,279.8h-5.9v8.1h6.1c3.8,0,5.7-1.4,5.7-4.1c0-1.4-0.5-2.4-1.5-3.1
	C247.9,280.1,246.4,279.8,244.4,279.8z"/>
<path class="st1" d="M268.6,280.2h-2v9c0,1.2-0.3,2-0.8,2.6s-1.2,0.8-2,0.8c-0.9,0-1.6-0.3-2.1-0.9c-0.5-0.6-0.7-1.4-0.7-2.6v-21.5
	c0-1.2,0.3-2.1,0.8-2.6c0.5-0.5,1.4-0.8,2.6-0.8h9.2c1.3,0,2.4,0,3.3,0.2c0.9,0.1,1.7,0.3,2.4,0.7c0.9,0.4,1.6,0.9,2.3,1.6
	c0.7,0.7,1.2,1.5,1.5,2.4s0.5,1.9,0.5,2.9c0,2.1-0.6,3.8-1.8,5s-3,2.1-5.3,2.6c1,0.5,2,1.3,2.9,2.4c0.9,1,1.7,2.1,2.5,3.3
	s1.3,2.2,1.7,3.2c0.4,1,0.6,1.6,0.6,2c0,0.4-0.1,0.7-0.4,1.1c-0.2,0.4-0.6,0.6-1,0.9c-0.4,0.2-0.9,0.3-1.4,0.3
	c-0.6,0-1.2-0.1-1.6-0.5c-0.4-0.3-0.8-0.7-1.1-1.1c-0.3-0.5-0.7-1.1-1.3-2l-2.3-3.8c-0.8-1.4-1.5-2.4-2.2-3.2
	c-0.6-0.7-1.3-1.2-2-1.5C270.4,280.4,269.6,280.2,268.6,280.2z M271.8,268.5h-5.2v7.7h5.1c1.4,0,2.5-0.1,3.4-0.4
	c0.9-0.2,1.6-0.6,2.1-1.2c0.5-0.6,0.7-1.3,0.7-2.3c0-0.8-0.2-1.5-0.6-2c-0.4-0.6-0.9-1-1.6-1.3C275.1,268.6,273.8,268.5,271.8,268.5
	z"/>
<path class="st1" d="M289.3,289.2v-22c0-1.1,0.3-2,0.8-2.6s1.2-0.9,2-0.9c0.9,0,1.5,0.3,2.1,0.9c0.5,0.6,0.8,1.4,0.8,2.6v22
	c0,1.2-0.3,2-0.8,2.6s-1.2,0.9-2.1,0.9c-0.8,0-1.5-0.3-2-0.9S289.3,290.3,289.3,289.2z"/>
<path class="st1" d="M322.4,283.8c0,1.7-0.4,3.2-1.3,4.5s-2.1,2.4-3.8,3.2s-3.7,1.1-6,1.1c-2.8,0-5-0.5-6.8-1.6
	c-1.3-0.8-2.3-1.8-3.1-3s-1.2-2.5-1.2-3.6c0-0.7,0.2-1.3,0.7-1.8c0.5-0.5,1.1-0.7,1.8-0.7c0.6,0,1.1,0.2,1.5,0.6s0.8,1,1.1,1.7
	c0.4,0.9,0.7,1.6,1.1,2.2s1,1.1,1.7,1.5s1.7,0.6,3,0.6c1.7,0,3-0.4,4.1-1.2c1-0.8,1.6-1.8,1.6-2.9c0-0.9-0.3-1.7-0.9-2.3
	c-0.6-0.6-1.3-1-2.2-1.3c-0.9-0.3-2.1-0.6-3.6-1c-2-0.5-3.7-1-5-1.6s-2.4-1.5-3.2-2.6c-0.8-1.1-1.2-2.4-1.2-4c0-1.5,0.4-2.9,1.3-4.1
	s2-2.1,3.6-2.8c1.6-0.6,3.5-1,5.6-1c1.7,0,3.2,0.2,4.5,0.6c1.2,0.4,2.3,1,3.1,1.7c0.8,0.7,1.4,1.4,1.8,2.2c0.4,0.8,0.6,1.5,0.6,2.3
	c0,0.7-0.2,1.3-0.7,1.8c-0.5,0.5-1.1,0.8-1.8,0.8c-0.6,0-1.1-0.2-1.5-0.5c-0.3-0.3-0.7-0.9-1.1-1.6c-0.5-1-1.1-1.9-1.8-2.5
	s-1.9-0.9-3.4-0.9c-1.5,0-2.6,0.3-3.5,1c-0.9,0.6-1.3,1.4-1.3,2.3c0,0.6,0.1,1,0.5,1.5c0.3,0.4,0.7,0.8,1.3,1s1.1,0.5,1.6,0.7
	c0.5,0.2,1.5,0.4,2.7,0.7c1.6,0.4,3,0.8,4.3,1.2c1.3,0.4,2.4,1,3.3,1.6c0.9,0.6,1.6,1.4,2.1,2.4
	C322.2,281.2,322.4,282.4,322.4,283.8z"/>
<path class="st1" d="M345.4,268.9h-6.2v20.3c0,1.2-0.3,2-0.8,2.6c-0.5,0.6-1.2,0.9-2,0.9c-0.8,0-1.5-0.3-2-0.9
	c-0.5-0.6-0.8-1.4-0.8-2.6v-20.3h-6.2c-1,0-1.7-0.2-2.1-0.6c-0.5-0.4-0.7-1-0.7-1.7c0-0.7,0.2-1.3,0.7-1.7c0.5-0.4,1.2-0.6,2.1-0.6
	h18c1,0,1.7,0.2,2.2,0.6c0.5,0.4,0.7,1,0.7,1.7s-0.2,1.3-0.7,1.7C347.1,268.7,346.3,268.9,345.4,268.9z"/>
<path class="st1" d="M363.4,263.8c2.9,0,5.4,0.6,7.5,1.8s3.6,2.8,4.7,5c1.1,2.2,1.6,4.7,1.6,7.6c0,2.2-0.3,4.1-0.9,5.9
	c-0.6,1.8-1.5,3.3-2.6,4.6c-1.2,1.3-2.6,2.3-4.3,3c-1.7,0.7-3.6,1-5.9,1c-2.2,0-4.1-0.4-5.9-1.1c-1.7-0.7-3.2-1.7-4.3-3
	c-1.2-1.3-2-2.8-2.6-4.6s-0.9-3.8-0.9-5.9c0-2.1,0.3-4.1,0.9-5.9c0.6-1.8,1.5-3.3,2.7-4.6c1.2-1.3,2.6-2.2,4.3-2.9
	C359.4,264.1,361.3,263.8,363.4,263.8z M371.4,278.1c0-2-0.3-3.8-1-5.3c-0.7-1.5-1.6-2.6-2.8-3.4c-1.2-0.8-2.6-1.1-4.2-1.1
	c-1.1,0-2.2,0.2-3.1,0.6c-1,0.4-1.8,1-2.5,1.9s-1.2,1.9-1.6,3.1c-0.4,1.3-0.6,2.7-0.6,4.3c0,1.6,0.2,3,0.6,4.3s1,2.4,1.7,3.2
	c0.7,0.8,1.6,1.5,2.5,1.9c1,0.4,2,0.6,3.1,0.6c1.5,0,2.8-0.4,4-1.1s2.2-1.8,2.9-3.4C371.1,282.2,371.4,280.3,371.4,278.1z"/>
<path class="st1" d="M387.5,267.2v20.3H399c0.9,0,1.6,0.2,2.1,0.7c0.5,0.4,0.7,1,0.7,1.7c0,0.7-0.2,1.2-0.7,1.7
	c-0.5,0.4-1.2,0.6-2.1,0.6h-13.7c-1.2,0-2.1-0.3-2.7-0.8c-0.5-0.5-0.8-1.4-0.8-2.6v-21.5c0-1.1,0.3-2,0.8-2.6c0.5-0.6,1.2-0.9,2-0.9
	c0.9,0,1.5,0.3,2.1,0.9C387.3,265.2,387.5,266,387.5,267.2z"/>
<path class="st0" d="M419.4,267.5l6.3,18.7l6.3-18.9c0.3-1,0.6-1.7,0.7-2.1c0.2-0.4,0.4-0.7,0.8-1s0.9-0.5,1.6-0.5
	c0.5,0,0.9,0.1,1.3,0.4s0.7,0.6,1,1s0.4,0.8,0.4,1.2c0,0.3,0,0.6-0.1,0.9c-0.1,0.3-0.2,0.6-0.3,1c-0.1,0.3-0.2,0.6-0.3,1l-6.8,18.2
	c-0.2,0.7-0.5,1.4-0.7,2s-0.5,1.2-0.8,1.7s-0.7,0.9-1.3,1.2c-0.5,0.3-1.2,0.5-1.9,0.5c-0.8,0-1.4-0.1-1.9-0.5
	c-0.5-0.3-1-0.7-1.3-1.2c-0.3-0.5-0.6-1-0.9-1.7c-0.2-0.6-0.5-1.3-0.7-2l-6.6-18.1c-0.1-0.3-0.2-0.6-0.4-1s-0.2-0.7-0.3-1
	s-0.1-0.7-0.1-0.9c0-0.6,0.3-1.2,0.8-1.8s1.2-0.8,2-0.8c1,0,1.6,0.3,2,0.9C418.6,265.2,419,266.2,419.4,267.5z"/>
<path class="st0" d="M442.4,289.2v-22c0-1.1,0.3-2,0.8-2.6s1.2-0.9,2-0.9c0.9,0,1.5,0.3,2.1,0.9c0.5,0.6,0.8,1.4,0.8,2.6v22
	c0,1.2-0.3,2-0.8,2.6s-1.2,0.9-2.1,0.9c-0.8,0-1.5-0.3-2-0.9S442.4,290.3,442.4,289.2z"/>
<path class="st0" d="M475.6,283.8c0,1.7-0.4,3.2-1.3,4.5c-0.9,1.4-2.1,2.4-3.8,3.2s-3.7,1.1-6,1.1c-2.8,0-5-0.5-6.8-1.6
	c-1.3-0.8-2.3-1.8-3.1-3s-1.2-2.5-1.2-3.6c0-0.7,0.2-1.3,0.7-1.8c0.5-0.5,1.1-0.7,1.8-0.7c0.6,0,1.1,0.2,1.5,0.6s0.8,1,1.1,1.7
	c0.4,0.9,0.7,1.6,1.1,2.2s1,1.1,1.7,1.5s1.7,0.6,3,0.6c1.7,0,3-0.4,4.1-1.2c1-0.8,1.6-1.8,1.6-2.9c0-0.9-0.3-1.7-0.9-2.3
	c-0.6-0.6-1.3-1-2.2-1.3c-0.9-0.3-2.1-0.6-3.6-1c-2-0.5-3.7-1-5-1.6c-1.4-0.6-2.4-1.5-3.2-2.6c-0.8-1.1-1.2-2.4-1.2-4
	c0-1.5,0.4-2.9,1.3-4.1s2-2.1,3.6-2.8c1.6-0.6,3.5-1,5.6-1c1.7,0,3.2,0.2,4.5,0.6c1.2,0.4,2.3,1,3.1,1.7c0.8,0.7,1.4,1.4,1.8,2.2
	c0.4,0.8,0.6,1.5,0.6,2.3c0,0.7-0.2,1.3-0.7,1.8c-0.5,0.5-1.1,0.8-1.8,0.8c-0.6,0-1.1-0.2-1.5-0.5c-0.3-0.3-0.7-0.9-1.1-1.6
	c-0.5-1-1.1-1.9-1.8-2.5s-1.9-0.9-3.4-0.9c-1.5,0-2.6,0.3-3.5,1c-0.9,0.6-1.3,1.4-1.3,2.3c0,0.6,0.1,1,0.5,1.5
	c0.3,0.4,0.7,0.8,1.3,1s1.1,0.5,1.6,0.7c0.5,0.2,1.5,0.4,2.7,0.7c1.6,0.4,3,0.8,4.3,1.2c1.3,0.4,2.4,1,3.3,1.6
	c0.9,0.6,1.6,1.4,2.1,2.4C475.3,281.2,475.6,282.4,475.6,283.8z"/>
<path class="st0" d="M480.6,289.2v-22c0-1.1,0.3-2,0.8-2.6s1.2-0.9,2-0.9c0.9,0,1.5,0.3,2.1,0.9c0.5,0.6,0.8,1.4,0.8,2.6v22
	c0,1.2-0.3,2-0.8,2.6s-1.2,0.9-2.1,0.9c-0.8,0-1.5-0.3-2-0.9S480.6,290.3,480.6,289.2z"/>
<path class="st0" d="M504.9,263.8c2.9,0,5.4,0.6,7.5,1.8c2.1,1.2,3.7,2.8,4.7,5c1.1,2.2,1.6,4.7,1.6,7.6c0,2.2-0.3,4.1-0.9,5.9
	c-0.6,1.8-1.5,3.3-2.6,4.6c-1.2,1.3-2.6,2.3-4.3,3c-1.7,0.7-3.6,1-5.9,1c-2.2,0-4.1-0.4-5.9-1.1c-1.7-0.7-3.2-1.7-4.3-3
	c-1.2-1.3-2-2.8-2.6-4.6c-0.6-1.8-0.9-3.8-0.9-5.9c0-2.1,0.3-4.1,0.9-5.9c0.6-1.8,1.5-3.3,2.7-4.6s2.6-2.2,4.3-2.9
	C500.8,264.1,502.7,263.8,504.9,263.8z M512.9,278.1c0-2-0.3-3.8-1-5.3c-0.7-1.5-1.6-2.6-2.8-3.4c-1.2-0.8-2.6-1.1-4.2-1.1
	c-1.1,0-2.2,0.2-3.1,0.6c-1,0.4-1.8,1-2.5,1.9c-0.7,0.8-1.2,1.9-1.6,3.1c-0.4,1.3-0.6,2.7-0.6,4.3c0,1.6,0.2,3,0.6,4.3
	s1,2.4,1.7,3.2s1.6,1.5,2.5,1.9c1,0.4,2,0.6,3.1,0.6c1.5,0,2.8-0.4,4-1.1s2.2-1.8,2.9-3.4C512.5,282.2,512.9,280.3,512.9,278.1z"/>
<path class="st0" d="M530.8,267.2l10.9,16.5V267c0-1.1,0.2-1.9,0.7-2.4c0.5-0.5,1.1-0.8,1.9-0.8c0.8,0,1.5,0.3,1.9,0.8
	s0.7,1.4,0.7,2.4v22c0,2.5-1,3.7-3,3.7c-0.5,0-1-0.1-1.4-0.2s-0.8-0.4-1.1-0.7c-0.4-0.3-0.7-0.7-1-1.1c-0.3-0.4-0.6-0.9-0.9-1.3
	l-10.6-16.3v16.4c0,1.1-0.2,1.9-0.7,2.4c-0.5,0.5-1.1,0.8-1.9,0.8c-0.8,0-1.4-0.3-1.9-0.8s-0.7-1.4-0.7-2.4v-21.5
	c0-0.9,0.1-1.6,0.3-2.1c0.2-0.6,0.6-1,1.2-1.4s1.2-0.5,1.8-0.5c0.5,0,0.9,0.1,1.3,0.2s0.7,0.4,1,0.7s0.5,0.6,0.8,1.1
	C530.2,266.2,530.5,266.7,530.8,267.2z"/>
<path class="st0" d="M563.1,289.2v-22c0-1.1,0.3-2,0.8-2.6s1.2-0.9,2-0.9c0.8,0,1.5,0.3,2.1,0.9c0.5,0.6,0.8,1.4,0.8,2.6v22
	c0,1.2-0.3,2-0.8,2.6c-0.5,0.6-1.2,0.9-2.1,0.9c-0.8,0-1.5-0.3-2-0.9C563.3,291.2,563.1,290.3,563.1,289.2z"/>
<path class="st0" d="M582.4,267.2l10.9,16.5V267c0-1.1,0.2-1.9,0.7-2.4c0.5-0.5,1.1-0.8,1.9-0.8c0.8,0,1.5,0.3,1.9,0.8
	s0.7,1.4,0.7,2.4v22c0,2.5-1,3.7-3,3.7c-0.5,0-1-0.1-1.4-0.2s-0.8-0.4-1.1-0.7c-0.4-0.3-0.7-0.7-1-1.1c-0.3-0.4-0.6-0.9-0.9-1.3
	l-10.6-16.3v16.4c0,1.1-0.2,1.9-0.7,2.4c-0.5,0.5-1.1,0.8-1.9,0.8c-0.8,0-1.4-0.3-1.9-0.8s-0.7-1.4-0.7-2.4v-21.5
	c0-0.9,0.1-1.6,0.3-2.1c0.2-0.6,0.6-1,1.2-1.4s1.2-0.5,1.8-0.5c0.5,0,0.9,0.1,1.3,0.2s0.7,0.4,1,0.7s0.5,0.6,0.8,1.1
	C581.8,266.2,582.1,266.7,582.4,267.2z"/>
<path class="st0" d="M625.9,283.8c0,1.7-0.4,3.2-1.3,4.5c-0.9,1.4-2.1,2.4-3.8,3.2s-3.7,1.1-6,1.1c-2.8,0-5-0.5-6.8-1.6
	c-1.3-0.8-2.3-1.8-3.1-3c-0.8-1.2-1.2-2.5-1.2-3.6c0-0.7,0.2-1.3,0.7-1.8c0.5-0.5,1.1-0.7,1.8-0.7c0.6,0,1.1,0.2,1.5,0.6
	c0.4,0.4,0.8,1,1.1,1.7c0.4,0.9,0.7,1.6,1.2,2.2c0.4,0.6,1,1.1,1.7,1.5s1.7,0.6,3,0.6c1.7,0,3-0.4,4.1-1.2c1-0.8,1.6-1.8,1.6-2.9
	c0-0.9-0.3-1.7-0.8-2.3c-0.6-0.6-1.3-1-2.2-1.3c-0.9-0.3-2.1-0.6-3.6-1c-2-0.5-3.7-1-5-1.6c-1.3-0.6-2.4-1.5-3.2-2.6
	c-0.8-1.1-1.2-2.4-1.2-4c0-1.5,0.4-2.9,1.3-4.1s2-2.1,3.6-2.8s3.5-1,5.6-1c1.7,0,3.2,0.2,4.5,0.6c1.2,0.4,2.3,1,3.1,1.7
	c0.8,0.7,1.4,1.4,1.8,2.2c0.4,0.8,0.6,1.5,0.6,2.3c0,0.7-0.2,1.3-0.7,1.8c-0.5,0.5-1.1,0.8-1.8,0.8c-0.7,0-1.1-0.2-1.5-0.5
	c-0.3-0.3-0.7-0.9-1.1-1.6c-0.5-1-1.1-1.9-1.8-2.5s-1.8-0.9-3.4-0.9c-1.5,0-2.6,0.3-3.5,1c-0.9,0.6-1.3,1.4-1.3,2.3
	c0,0.6,0.2,1,0.5,1.5c0.3,0.4,0.7,0.8,1.3,1c0.5,0.3,1.1,0.5,1.6,0.7c0.5,0.2,1.5,0.4,2.7,0.7c1.6,0.4,3,0.8,4.3,1.2
	c1.3,0.4,2.4,1,3.3,1.6c0.9,0.6,1.6,1.4,2.1,2.4C625.7,281.2,625.9,282.4,625.9,283.8z"/>
<path class="st0" d="M648.8,268.9h-6.2v20.3c0,1.2-0.3,2-0.8,2.6c-0.5,0.6-1.2,0.9-2,0.9c-0.8,0-1.5-0.3-2-0.9
	c-0.5-0.6-0.8-1.4-0.8-2.6v-20.3h-6.2c-1,0-1.7-0.2-2.2-0.6c-0.5-0.4-0.7-1-0.7-1.7c0-0.7,0.2-1.3,0.7-1.7c0.5-0.4,1.2-0.6,2.1-0.6
	h18c1,0,1.7,0.2,2.2,0.6s0.7,1,0.7,1.7s-0.2,1.3-0.7,1.7C650.5,268.7,649.8,268.9,648.8,268.9z"/>
<path class="st0" d="M655.3,289.2v-22c0-1.1,0.3-2,0.8-2.6s1.2-0.9,2-0.9c0.8,0,1.5,0.3,2.1,0.9c0.5,0.6,0.8,1.4,0.8,2.6v22
	c0,1.2-0.3,2-0.8,2.6c-0.5,0.6-1.2,0.9-2.1,0.9c-0.8,0-1.5-0.3-2-0.9S655.3,290.3,655.3,289.2z"/>
<path class="st0" d="M685.4,268.9h-6.2v20.3c0,1.2-0.3,2-0.8,2.6c-0.5,0.6-1.2,0.9-2,0.9c-0.8,0-1.5-0.3-2-0.9
	c-0.5-0.6-0.8-1.4-0.8-2.6v-20.3h-6.2c-1,0-1.7-0.2-2.2-0.6c-0.5-0.4-0.7-1-0.7-1.7c0-0.7,0.2-1.3,0.7-1.7c0.5-0.4,1.2-0.6,2.1-0.6
	h18c1,0,1.7,0.2,2.2,0.6s0.7,1,0.7,1.7s-0.2,1.3-0.7,1.7C687.1,268.7,686.4,268.9,685.4,268.9z"/>
<path class="st0" d="M691.7,280.6v-13.4c0-1.1,0.3-2,0.8-2.6s1.2-0.9,2-0.9c0.9,0,1.6,0.3,2.1,0.9c0.5,0.6,0.8,1.4,0.8,2.6v13.7
	c0,1.6,0.2,2.9,0.5,3.9c0.3,1,1,1.9,1.9,2.4c0.9,0.6,2.1,0.9,3.7,0.9c2.2,0,3.8-0.6,4.7-1.8c0.9-1.2,1.4-3,1.4-5.3v-13.9
	c0-1.2,0.2-2,0.8-2.6c0.5-0.6,1.2-0.9,2-0.9s1.5,0.3,2.1,0.9c0.5,0.6,0.8,1.4,0.8,2.6v13.4c0,2.2-0.2,4-0.6,5.5s-1.2,2.7-2.4,3.9
	c-1,0.9-2.2,1.6-3.5,2.1c-1.3,0.4-2.9,0.6-4.7,0.6c-2.2,0-4-0.2-5.5-0.7c-1.5-0.5-2.8-1.2-3.8-2.1s-1.7-2.2-2.2-3.7
	C691.9,284.5,691.7,282.7,691.7,280.6z"/>
<path class="st0" d="M739.4,268.9h-6.2v20.3c0,1.2-0.3,2-0.8,2.6c-0.5,0.6-1.2,0.9-2,0.9c-0.8,0-1.5-0.3-2-0.9
	c-0.5-0.6-0.8-1.4-0.8-2.6v-20.3h-6.2c-1,0-1.7-0.2-2.2-0.6c-0.5-0.4-0.7-1-0.7-1.7c0-0.7,0.2-1.3,0.7-1.7c0.5-0.4,1.2-0.6,2.1-0.6
	h18c1,0,1.7,0.2,2.2,0.6s0.7,1,0.7,1.7s-0.2,1.3-0.7,1.7C741.1,268.7,740.4,268.9,739.4,268.9z"/>
<path class="st0" d="M764.1,268.6h-12.7v6.9h11.7c0.9,0,1.5,0.2,1.9,0.6c0.4,0.4,0.6,0.9,0.6,1.5s-0.2,1.1-0.6,1.5s-1.1,0.6-1.9,0.6
	h-11.7v7.9h13.2c0.9,0,1.6,0.2,2,0.6s0.7,1,0.7,1.6c0,0.7-0.2,1.2-0.7,1.6c-0.5,0.4-1.1,0.6-2,0.6h-15.4c-1.2,0-2.1-0.3-2.7-0.8
	c-0.5-0.5-0.8-1.4-0.8-2.6v-21c0-0.8,0.1-1.5,0.4-2c0.2-0.5,0.6-0.9,1.1-1.1c0.5-0.2,1.2-0.4,2-0.4h14.9c0.9,0,1.6,0.2,2,0.6
	s0.7,0.9,0.7,1.6c0,0.7-0.2,1.2-0.7,1.6C765.6,268.4,765,268.6,764.1,268.6z"/>
</svg>
