<svg xmlns="http://www.w3.org/2000/svg" viewBox="0 0 128.88 36.59"><defs><style>.cls-1,.cls-4{isolation:isolate;}.cls-2{fill:#003d4c;}.cls-3{fill:#08837e;}.cls-4{font-size:2px;font-family:Arial-Black, Arial Black;font-weight:800;}.cls-5{fill:none;stroke:#000;stroke-miterlimit:10;stroke-width:0.25px;}</style></defs><g id="Layer_2" data-name="Layer 2"><g id="Layer_1-2" data-name="Layer 1"><g id="Layer_1-3" data-name="Layer 1"><g class="cls-1"><g class="cls-1"><path d="M5.65,28.28h.82L3.73,34.77H2.84L.28,28.28h1l2.14,5.44Z"/><path d="M7.24,29.06v-.78h.81v.78Zm0,1h.81v4.67H7.24Z"/><path d="M9,33.54h.81a.64.64,0,0,0,.23.5,1.22,1.22,0,0,0,.8.2,1.36,1.36,0,0,0,.81-.23.7.7,0,0,0,.31-.55c0-.29-.21-.5-.61-.62L11,32.73l-.27-.08-.56-.17a1.19,1.19,0,0,1-1-1.12,1.28,1.28,0,0,1,.46-1A2,2,0,0,1,11,30a1.87,1.87,0,0,1,1.27.35,1.07,1.07,0,0,1,.38.8v0h-.81v0a.41.41,0,0,0-.24-.37,1.34,1.34,0,0,0-.65-.13,1.23,1.23,0,0,0-.74.19.58.58,0,0,0-.25.48.41.41,0,0,0,.17.35,1.49,1.49,0,0,0,.55.25l.39.1.28.08a7.6,7.6,0,0,1,.73.23,1.69,1.69,0,0,1,.29.17.88.88,0,0,1,.3.37,1.12,1.12,0,0,1,.1.5,1.44,1.44,0,0,1-.49,1.11,2,2,0,0,1-1.43.45,2.55,2.55,0,0,1-1-.17,1.61,1.61,0,0,1-.63-.48,1.13,1.13,0,0,1-.23-.7Z"/><path d="M17,30.1h.8v4.67H17V34a2.25,2.25,0,0,1-.51.57,1.67,1.67,0,0,1-.5.28,1.48,1.48,0,0,1-.57.1,1.83,1.83,0,0,1-1.16-.37,1.8,1.8,0,0,1-.47-1.47v-3h.81v2.63c0,.69.09,1.1.28,1.24a1.2,1.2,0,0,0,.72.21,1.25,1.25,0,0,0,.69-.2,1.35,1.35,0,0,0,.51-.57,2.17,2.17,0,0,0,.2-1Z"/><path d="M22,34.77a2.25,2.25,0,0,1-.13-.65,2.61,2.61,0,0,1-.88.64,1.78,1.78,0,0,1-.7.14,1.43,1.43,0,0,1-1-.34,1.26,1.26,0,0,1,.16-2,5.82,5.82,0,0,1,2-.64l.42-.08v-.52a.66.66,0,0,0-.28-.61,1.42,1.42,0,0,0-.7-.17,1.19,1.19,0,0,0-.75.21.62.62,0,0,0-.27.5v.07h-.88v-.07a1.08,1.08,0,0,1,.26-.64,1.65,1.65,0,0,1,.71-.49,2.49,2.49,0,0,1,1-.17,2.63,2.63,0,0,1,.95.16,1.28,1.28,0,0,1,.62.43,1.84,1.84,0,0,1,.19,1v1.81c0,.2,0,.41,0,.63a3.07,3.07,0,0,0,.15.76Zm-.13-2.36-.23.06a4.86,4.86,0,0,0-1.51.55.77.77,0,0,0-.33.62.69.69,0,0,0,.09.34.68.68,0,0,0,.3.25.85.85,0,0,0,.38.09,1.23,1.23,0,0,0,.64-.2,1.31,1.31,0,0,0,.49-.5,1.47,1.47,0,0,0,.17-.74Z"/><path d="M24.76,34.77H24V28h.81Z"/></g></g><g class="cls-1"><path d="M31.37,34.77H30.5V28.28h.87Z"/><path d="M33.45,34.77h-.8V30.1h.8v.81a2.46,2.46,0,0,1,.5-.57,1.92,1.92,0,0,1,.5-.28A1.83,1.83,0,0,1,35,30a1.86,1.86,0,0,1,.82.18,1.3,1.3,0,0,1,.56.53,2.37,2.37,0,0,1,.2,1.12v3h-.81V32.13a3.08,3.08,0,0,0-.09-.89.74.74,0,0,0-.33-.41,1.06,1.06,0,0,0-.55-.15,1.31,1.31,0,0,0-.68.2,1.54,1.54,0,0,0-.51.56,2.21,2.21,0,0,0-.2,1Z"/><path d="M39.08,34.77h-.81v-4h-.71V30.1h.71v-.22a1.91,1.91,0,0,1,.45-1.44A1.6,1.6,0,0,1,39.88,28a4.82,4.82,0,0,1,.68.06v.63a4.26,4.26,0,0,0-.54,0,1.2,1.2,0,0,0-.67.18c-.18.12-.27.42-.27.88v.37h1.41v.65H39.08Z"/><path d="M43.36,34.9a2.33,2.33,0,0,1-1.63-.62,2.42,2.42,0,0,1-.67-1.85,2.41,2.41,0,0,1,.67-1.84A2.29,2.29,0,0,1,43.36,30a2.26,2.26,0,0,1,1.61.62,2.37,2.37,0,0,1,.67,1.84A2.38,2.38,0,0,1,45,34.28,2.3,2.3,0,0,1,43.36,34.9Zm0-.65a1.27,1.27,0,0,0,1-.5,2.36,2.36,0,0,0,0-2.63,1.24,1.24,0,0,0-1-.5,1.28,1.28,0,0,0-1.06.5,2.41,2.41,0,0,0,0,2.63A1.3,1.3,0,0,0,43.36,34.25Z"/><path d="M47.49,34.77h-.81V30.1h.81v.82a1.82,1.82,0,0,1,.45-.55,1.9,1.9,0,0,1,.51-.3A1.54,1.54,0,0,1,49,30a1.16,1.16,0,0,1,.44.07v.81a1.44,1.44,0,0,0-.62-.14,1.34,1.34,0,0,0-.9.39,1.75,1.75,0,0,0-.44,1.36Z"/><path d="M50.92,34.77h-.81V30.1h.81v.84a2.31,2.31,0,0,1,.47-.6,1.42,1.42,0,0,1,.49-.28,1.73,1.73,0,0,1,.56-.09,1.9,1.9,0,0,1,.58.09,1.29,1.29,0,0,1,.47.27,1.88,1.88,0,0,1,.39.61,2.21,2.21,0,0,1,.49-.59,1.71,1.71,0,0,1,.5-.29,1.61,1.61,0,0,1,.54-.09,1.53,1.53,0,0,1,.74.18,1.26,1.26,0,0,1,.52.53,2.73,2.73,0,0,1,.18,1.17v2.92H56v-2.6a3.13,3.13,0,0,0-.1-1,.76.76,0,0,0-.28-.33.78.78,0,0,0-.44-.12,1.12,1.12,0,0,0-.67.22,1.53,1.53,0,0,0-.48.58,2.31,2.31,0,0,0-.19,1v2.27h-.8v-2.6a3.17,3.17,0,0,0-.1-1,.72.72,0,0,0-.29-.33.88.88,0,0,0-.44-.12,1.12,1.12,0,0,0-.65.23,1.45,1.45,0,0,0-.5.59,2.29,2.29,0,0,0-.18,1Z"/><path d="M61,34.77a2.25,2.25,0,0,1-.13-.65,2.61,2.61,0,0,1-.88.64,1.78,1.78,0,0,1-.7.14,1.43,1.43,0,0,1-1-.34,1.26,1.26,0,0,1,.16-2,5.82,5.82,0,0,1,2-.64l.42-.08v-.52a.64.64,0,0,0-.29-.61,1.36,1.36,0,0,0-.69-.17,1.19,1.19,0,0,0-.75.21.64.64,0,0,0-.28.5v.07H58v-.07a1.08,1.08,0,0,1,.26-.64,1.65,1.65,0,0,1,.71-.49,2.49,2.49,0,0,1,1-.17,2.54,2.54,0,0,1,.94.16,1.23,1.23,0,0,1,.62.43,1.73,1.73,0,0,1,.2,1v1.81c0,.2,0,.41,0,.63a3.07,3.07,0,0,0,.15.76Zm-.13-2.36-.23.06A4.86,4.86,0,0,0,59.1,33a.78.78,0,0,0-.34.62.65.65,0,0,0,.39.59.92.92,0,0,0,.38.09,1.23,1.23,0,0,0,.65-.2,1.31,1.31,0,0,0,.49-.5,1.58,1.58,0,0,0,.17-.74Z"/><path d="M65.94,34.11v.65a4.59,4.59,0,0,1-.91.14,1.92,1.92,0,0,1-.81-.17,1.26,1.26,0,0,1-.55-.52,2.17,2.17,0,0,1-.19-1.06v-2.4h-.84V30.1h.84V29h.81V30.1H65.7v.65H64.29v2.18a2.45,2.45,0,0,0,.1.86.67.67,0,0,0,.31.35,1.21,1.21,0,0,0,.52.11A3,3,0,0,0,65.94,34.11Z"/><path d="M66.91,29.06v-.78h.81v.78Zm0,1h.81v4.67h-.81Z"/><path d="M71.06,34.9a2.29,2.29,0,0,1-1.62-.62,2.39,2.39,0,0,1-.68-1.85,2.38,2.38,0,0,1,.68-1.84,2.41,2.41,0,0,1,3.23,0,2.37,2.37,0,0,1,.67,1.84,2.38,2.38,0,0,1-.67,1.85A2.28,2.28,0,0,1,71.06,34.9Zm0-.65a1.27,1.27,0,0,0,1-.5,2.36,2.36,0,0,0,0-2.63,1.24,1.24,0,0,0-1-.5,1.28,1.28,0,0,0-1.06.5,2.41,2.41,0,0,0,0,2.63A1.3,1.3,0,0,0,71.06,34.25Z"/><path d="M75.19,34.77h-.81V30.1h.81v.81a2.25,2.25,0,0,1,.5-.57,1.77,1.77,0,0,1,.5-.28,1.94,1.94,0,0,1,1.4.09,1.25,1.25,0,0,1,.56.53,2.26,2.26,0,0,1,.2,1.12v3h-.8V32.13a3.08,3.08,0,0,0-.09-.89.75.75,0,0,0-.34-.41,1.06,1.06,0,0,0-.55-.15,1.27,1.27,0,0,0-.67.2,1.48,1.48,0,0,0-.52.56,2.23,2.23,0,0,0-.19,1Z"/><path d="M82.53,34.77V28.28h.88v5.78h3.53v.71Z"/><path d="M90.63,34.77a2,2,0,0,1-.13-.65,2.71,2.71,0,0,1-.88.64,1.82,1.82,0,0,1-.7.14,1.45,1.45,0,0,1-1-.34,1.26,1.26,0,0,1,.17-2,5.82,5.82,0,0,1,2-.64l.42-.08v-.52a.64.64,0,0,0-.29-.61,1.36,1.36,0,0,0-.69-.17,1.23,1.23,0,0,0-.76.21.62.62,0,0,0-.27.5v.07h-.87v-.07a1,1,0,0,1,.26-.64,1.59,1.59,0,0,1,.71-.49,2.49,2.49,0,0,1,1-.17,2.58,2.58,0,0,1,.94.16,1.28,1.28,0,0,1,.62.43,1.82,1.82,0,0,1,.2,1v1.81c0,.2,0,.41,0,.63a2.72,2.72,0,0,0,.16.76Zm-.13-2.36-.23.06a5,5,0,0,0-1.52.55.77.77,0,0,0-.33.62.61.61,0,0,0,.1.34.65.65,0,0,0,.29.25.92.92,0,0,0,.38.09,1.2,1.2,0,0,0,.64-.2,1.24,1.24,0,0,0,.49-.5,1.47,1.47,0,0,0,.18-.74Z"/><path d="M93.37,34.77h-.8c0-.15,0-.34,0-.56s0-.4,0-.54,0-.23,0-.28V28h.81v2.89a2.34,2.34,0,0,1,.49-.58,1.62,1.62,0,0,1,.5-.27A1.9,1.9,0,0,1,95,30a1.77,1.77,0,0,1,1,.29,1.89,1.89,0,0,1,.71.87A3.13,3.13,0,0,1,97,32.42a2.83,2.83,0,0,1-.53,1.78,1.75,1.75,0,0,1-1.47.7,2.14,2.14,0,0,1-.58-.08,1.59,1.59,0,0,1-.48-.26,2.07,2.07,0,0,1-.47-.61l0,.34C93.4,34.48,93.39,34.64,93.37,34.77Zm.07-2.33a2.27,2.27,0,0,0,.35,1.3,1.12,1.12,0,0,0,1,.51,1.24,1.24,0,0,0,1-.45,2.07,2.07,0,0,0,.38-1.35A2.11,2.11,0,0,0,95.74,31a1.29,1.29,0,0,0-.94-.41,1.23,1.23,0,0,0-.71.23,1.34,1.34,0,0,0-.49.66A2.78,2.78,0,0,0,93.44,32.44Z"/><path d="M100.11,34.9a2.29,2.29,0,0,1-1.62-.62,2.38,2.38,0,0,1-.67-1.85,2.37,2.37,0,0,1,.67-1.84,2.41,2.41,0,0,1,3.23,0,2.37,2.37,0,0,1,.67,1.84,2.38,2.38,0,0,1-.67,1.85A2.3,2.3,0,0,1,100.11,34.9Zm0-.65a1.27,1.27,0,0,0,1-.5,2.36,2.36,0,0,0,0-2.63,1.24,1.24,0,0,0-1-.5,1.28,1.28,0,0,0-1.06.5,2.41,2.41,0,0,0,0,2.63A1.3,1.3,0,0,0,100.11,34.25Z"/><path d="M104.24,34.77h-.81V30.1h.81v.82a2,2,0,0,1,.45-.55,1.9,1.9,0,0,1,.51-.3,1.58,1.58,0,0,1,.56-.1,1.25,1.25,0,0,1,.45.07v.81a1.52,1.52,0,0,0-.63-.14,1.34,1.34,0,0,0-.9.39,1.75,1.75,0,0,0-.44,1.36Z"/><path d="M109.78,34.77a2,2,0,0,1-.13-.65,2.71,2.71,0,0,1-.88.64,1.82,1.82,0,0,1-.7.14,1.45,1.45,0,0,1-1-.34,1.26,1.26,0,0,1,.17-2,5.82,5.82,0,0,1,2-.64l.42-.08v-.52a.66.66,0,0,0-.29-.61,1.36,1.36,0,0,0-.69-.17,1.23,1.23,0,0,0-.76.21.62.62,0,0,0-.27.5v.07h-.87v-.07a1,1,0,0,1,.26-.64,1.59,1.59,0,0,1,.71-.49,2.49,2.49,0,0,1,1-.17,2.58,2.58,0,0,1,.94.16,1.28,1.28,0,0,1,.62.43,1.82,1.82,0,0,1,.2,1v1.81c0,.2,0,.41,0,.63a2.72,2.72,0,0,0,.16.76Zm-.13-2.36-.23.06a5,5,0,0,0-1.52.55.77.77,0,0,0-.33.62.61.61,0,0,0,.1.34.65.65,0,0,0,.29.25.92.92,0,0,0,.38.09,1.2,1.2,0,0,0,.64-.2,1.33,1.33,0,0,0,.5-.5,1.58,1.58,0,0,0,.17-.74Z"/><path d="M114.74,34.11v.65a4.41,4.41,0,0,1-.9.14,1.92,1.92,0,0,1-.81-.17,1.21,1.21,0,0,1-.55-.52,2.17,2.17,0,0,1-.19-1.06v-2.4h-.84V30.1h.84V29h.8V30.1h1.42v.65h-1.42v2.18a2.39,2.39,0,0,0,.11.86.67.67,0,0,0,.31.35,1.13,1.13,0,0,0,.51.11A3,3,0,0,0,114.74,34.11Z"/><path d="M117.78,34.9a2.29,2.29,0,0,1-1.62-.62,2.38,2.38,0,0,1-.67-1.85,2.37,2.37,0,0,1,.67-1.84,2.41,2.41,0,0,1,3.23,0,2.37,2.37,0,0,1,.67,1.84,2.38,2.38,0,0,1-.67,1.85A2.28,2.28,0,0,1,117.78,34.9Zm0-.65a1.27,1.27,0,0,0,1-.5,2.36,2.36,0,0,0,0-2.63,1.24,1.24,0,0,0-1-.5,1.28,1.28,0,0,0-1.06.5,2.41,2.41,0,0,0,0,2.63A1.3,1.3,0,0,0,117.78,34.25Z"/><path d="M121.91,34.77h-.81V30.1h.81v.82a2,2,0,0,1,.45-.55,1.9,1.9,0,0,1,.51-.3,1.58,1.58,0,0,1,.56-.1,1.25,1.25,0,0,1,.45.07v.81a1.52,1.52,0,0,0-.63-.14,1.34,1.34,0,0,0-.9.39,1.75,1.75,0,0,0-.44,1.36Z"/><path d="M126.11,34.57,124,30.1h.9l1.62,3.47,1.52-3.47h.81l-2,4.67a5.77,5.77,0,0,1-.69,1.26,1.74,1.74,0,0,1-.59.43,2.37,2.37,0,0,1-.83.13h-.61v-.65h.46a1.68,1.68,0,0,0,.58-.09.93.93,0,0,0,.42-.27,3.87,3.87,0,0,0,.45-.83Z"/></g></g><g id="Layer_2-2" data-name="Layer 2"><g class="cls-1"><path class="cls-2" d="M1.27,5.91H5.48L8.42,16.33l2.9-10.42h4.09L10.57,20.39H6.2Z"/></g><g class="cls-1"><path class="cls-3" d="M16.88,5.91h4V20.39h-4Z"/></g><g class="cls-1"><path d="M23.82,5.91h4V16.82h6.29v3.57H23.82Z"/></g><text class="cls-4" transform="translate(34.64 20.39) scale(0.9 1)"> </text><g class="cls-1"><path d="M39.63,13.3l-3.46-.41a4.44,4.44,0,0,1,.57-1.58,3.22,3.22,0,0,1,1.06-1,4.19,4.19,0,0,1,1.37-.47,10.11,10.11,0,0,1,1.88-.17,13.09,13.09,0,0,1,2.62.21,3.18,3.18,0,0,1,1.65.84A3.06,3.06,0,0,1,46.05,12a5.19,5.19,0,0,1,.26,1.55v4.64a5.84,5.84,0,0,0,.09,1.16,5.26,5.26,0,0,0,.37,1.07h-3.4a3.72,3.72,0,0,1-.27-.62A5,5,0,0,1,43,19.1a4.78,4.78,0,0,1-1.42,1.09,5.34,5.34,0,0,1-2.23.44,3.51,3.51,0,0,1-2.57-.87,2.93,2.93,0,0,1-.87-2.15,3,3,0,0,1,.63-2,4.06,4.06,0,0,1,2.33-1.15q2-.45,2.64-.63c.4-.13.83-.29,1.28-.48a1.55,1.55,0,0,0-.27-1,1.29,1.29,0,0,0-1-.3,2.32,2.32,0,0,0-1.34.32A1.7,1.7,0,0,0,39.63,13.3Zm3.14,2.11a15.66,15.66,0,0,1-1.55.52,3.4,3.4,0,0,0-1.4.65,1,1,0,0,0-.3.74,1.08,1.08,0,0,0,.29.77,1.19,1.19,0,0,0,.88.3,2.17,2.17,0,0,0,1.13-.32,1.85,1.85,0,0,0,.73-.8,2.83,2.83,0,0,0,.22-1.22Z"/><path d="M48.68,5.91h3.66v5A3.58,3.58,0,0,1,53.57,10a3.64,3.64,0,0,1,1.53-.32A3.52,3.52,0,0,1,58,11a6.07,6.07,0,0,1,1.13,4,8.27,8.27,0,0,1-.51,3,4.2,4.2,0,0,1-1.43,2,3.43,3.43,0,0,1-2,.65,3.48,3.48,0,0,1-1.74-.46,4.83,4.83,0,0,1-1.3-1.33v1.55H48.68Zm3.63,9.2a3.29,3.29,0,0,0,.46,2,1.39,1.39,0,0,0,1.16.6A1.33,1.33,0,0,0,55,17.09a3.53,3.53,0,0,0,.44-2A3.07,3.07,0,0,0,55,13.25,1.27,1.27,0,0,0,54,12.67a1.45,1.45,0,0,0-1.2.6A3,3,0,0,0,52.31,15.11Z"/></g><rect class="cls-5" x="0.13" y="0.13" width="35.1" height="25.2"/></g></g></g></svg>